<?xml version="1.0" encoding="utf-8"?>
<!-- Generator: Adobe Illustrator 24.1.0, SVG Export Plug-In . SVG Version: 6.00 Build 0)  -->
<svg version="1.1" id="Layer_1" xmlns="http://www.w3.org/2000/svg" xmlns:xlink="http://www.w3.org/1999/xlink" x="0px" y="0px"
	 viewBox="0 0 521.97 1080" style="enable-background:new 0 0 521.97 1080;" xml:space="preserve">
<style type="text/css">
	.st0{fill:#FFFFFF;}
	.st1{fill:#0099D6;}
	.st2{display:none;}
	.st3{display:inline;fill:#E73225;}
	.st4{display:inline;fill:#0DAB4B;}
	.st5{display:inline;fill:#EA4E37;}
	.st6{display:inline;fill:#FFBC0E;}
	.st7{display:inline;fill:#EE8020;}
	.st8{display:inline;fill:#F4A033;}
	.st9{display:inline;fill:#387C46;}
	.st10{display:inline;fill:#D5A13C;}
	.st11{display:inline;fill:#CC2333;}
	.st12{display:inline;fill:#44C2EF;}
	.st13{display:inline;fill:#A11D44;}
	.st14{display:inline;fill:#E8408F;}
	.st15{display:inline;fill:#B6842C;}
	.st16{display:inline;fill:#00A8E9;}
	.st17{display:inline;fill:#006CB1;}
	.st18{display:inline;fill:#86C03F;}
	.st19{display:inline;fill:#174B6E;}
	.st20{display:none;fill:#508AC7;}
	.st21{display:inline;fill:#508AC7;}
	.st22{fill:#E0243B;}
	.st23{fill:#4C9A38;}
	.st24{fill:#FF3A21;}
	.st25{fill:#F7BE0B;}
	.st26{fill:#F86925;}
	.st27{fill:#F89824;}
	.st28{fill:#3F7E44;}
	.st29{fill:#D8A13A;}
	.st30{fill:#C0192D;}
	.st31{fill:#2688DD;}
	.st32{fill:#9D1942;}
	.st33{fill:#D81367;}
	.st34{fill:#BA862E;}
	.st35{fill:#0A92D4;}
	.st36{fill:#006898;}
	.st37{fill:#56BB2B;}
	.st38{fill:#19486A;}
	.st39{clip-path:url(#SVGID_2_);}
	.st40{fill:none;stroke:#2683D8;stroke-miterlimit:10;}
	.st41{opacity:0.3;}
	.st42{clip-path:url(#SVGID_6_);}
	.st43{fill:none;stroke:#FFFFFF;stroke-width:0.5863;stroke-miterlimit:10;}
	.st44{clip-path:url(#SVGID_8_);}
	.st45{clip-path:url(#SVGID_10_);}
	.st46{clip-path:url(#SVGID_12_);}
	.st47{clip-path:url(#SVGID_14_);}
	.st48{clip-path:url(#SVGID_16_);}
	.st49{fill:url(#SVGID_17_);}
	.st50{opacity:0.4;}
	.st51{fill:#2684D9;}
	.st52{opacity:0.1;}
	.st53{fill:none;stroke:#2684D9;stroke-width:0.3864;stroke-miterlimit:10;}
	.st54{fill:none;stroke:#1C1C1C;stroke-width:3.4447;stroke-miterlimit:10;}
</style>
<g class="st41">
	<g class="st50">
		<g>
			<path class="st51" d="M260.98,2.84l52.55,52.82l1.2,1.2l0,0l204.41,205.46l-204.3,205.34l0,0l-1.31,1.32l-52.55,52.82
				L2.82,262.32L260.98,2.84 M241.44,186.66l-66.87,67.21l-47.82-48.06l32.02-32.19l14.01,14.08l-16.6,16.69l-1.4,1.41l1.4,1.41
				l16.97,17.06l1.42,1.43l1.42-1.43l36.02-36.2l1.4-1.41l-1.4-1.41l-50.82-51.08l-1.42-1.43l-1.42,1.43l-73.25,73.62l-1.4,1.41
				l1.4,1.41l51.45,51.71l-51.45,51.71l-1.4,1.41l1.4,1.41l73.25,73.62l1.42,1.43l1.42-1.43l50.82-51.08l1.4-1.41l-1.4-1.41
				L176,300.37l-1.42-1.43l-1.42,1.43l-16.97,17.06l-1.4,1.41l1.4,1.41l16.6,16.69l-14.01,14.08l-32.02-32.19l47.82-48.06
				l66.87,67.21l-66.25,66.59l-1.4,1.41l1.4,1.41l84.38,84.81l1.42,1.43l1.42-1.43l37.14-37.33l47.24-47.48l1.4-1.41l-1.4-1.41
				l-66.25-66.59l66.87-67.21l47.82,48.06l-32.02,32.19l-14.02-14.09l16.61-16.69l1.4-1.41l-1.4-1.41l-16.97-17.06l-1.42-1.43
				l-1.42,1.43l-36.02,36.2l-1.4,1.41l1.4,1.41l50.82,51.08l1.42,1.42l1.42-1.43l73.25-73.62l1.4-1.41l-1.4-1.41l-51.45-51.71
				l51.45-51.71l1.4-1.41l-1.4-1.41l-73.25-73.62l-1.42-1.43l-1.42,1.43l-50.82,51.08l-1.4,1.41l1.4,1.41l36.02,36.2l1.42,1.43
				l1.42-1.43l16.97-17.06l1.4-1.41l-1.4-1.41l-16.61-16.69l14.02-14.09l32.02,32.19l-47.82,48.06l-66.87-67.21l66.25-66.59
				l1.4-1.41l-1.4-1.41l-47.24-47.48L262.4,32.43l-1.42-1.43l-1.42,1.43l-37.14,37.33l-47.24,47.48l-1.4,1.41l1.4,1.41
				L241.44,186.66 M452.28,301.36l1.42-1.43l36.02-36.2l1.4-1.41l-1.4-1.41l-36.02-36.2l-1.42-1.43l-1.42,1.43l-36.02,36.2
				l-1.4,1.41l1.4,1.41l36.02,36.2L452.28,301.36 M69.69,301.36l1.42-1.43l36.02-36.2l1.4-1.41l-1.4-1.41l-36.02-36.2l-1.42-1.43
				l-1.42,1.43l-36.02,36.2l-1.4,1.41l1.4,1.41l36.02,36.2L69.69,301.36 M260.98,0L0,262.32l260.98,262.32l53.97-54.25l0,0
				l207.01-208.07L314.96,54.25l0,0L260.98,0L260.98,0z M174.58,256.7l69.69-70.04l-67.66-68l47.24-47.48l0,0l37.14-37.33
				l37.14,37.33l0,0l47.24,47.48l-67.66,68l69.69,70.04l50.64-50.9l-34.84-35.02l-16.84,16.92l18.01,18.1l-16.97,17.06l-36.02-36.2
				l50.82-51.08l73.25,73.62l-52.85,53.12l52.85,53.12l-73.25,73.62l-50.82-51.08l36.02-36.2l16.97,17.06l-18.01,18.1l16.84,16.92
				l34.84-35.02l-50.64-50.9l-69.69,70.04l67.66,68l-47.24,47.48v0l-37.14,37.33l-84.38-84.81l67.66-68l-69.69-70.04l-50.64,50.9
				l34.84,35.02l16.83-16.92l-18.01-18.1l16.97-17.06l36.02,36.2l-50.82,51.08l-73.25-73.62l52.85-53.12L86.52,209.2l73.25-73.62
				l50.82,51.08l-36.02,36.2l-16.97-17.06l18.01-18.1l-16.83-16.92l-34.84,35.02L174.58,256.7L174.58,256.7z M452.28,298.52
				l-36.02-36.2l36.02-36.2l36.02,36.2L452.28,298.52L452.28,298.52z M69.69,298.52l-36.02-36.2l36.02-36.2l36.02,36.2L69.69,298.52
				L69.69,298.52z"/>
		</g>
		<g>
			<path class="st51" d="M260.98,349.62l55.15,55.43l-55.15,55.43l-55.15-55.43L260.98,349.62 M260.98,346.79l-57.97,58.27
				l57.97,58.27l57.97-58.27L260.98,346.79L260.98,346.79z"/>
		</g>
		<g>
			<path class="st51" d="M260.98,62.42l55.15,55.43l-55.15,55.43l-55.15-55.43L260.98,62.42 M260.98,59.58l-57.97,58.27l57.97,58.27
				l57.97-58.27L260.98,59.58L260.98,59.58z"/>
		</g>
	</g>
	<g class="st50">
		<g>
			<path class="st51" d="M260.98,558.2l52.55,52.82l1.2,1.2l0,0l204.41,205.46l-204.33,205.38l0,0l-1.27,1.28l-52.55,52.82
				L2.82,817.68L260.98,558.2 M241.44,742.02l-66.87,67.21l-47.82-48.06l32.02-32.19l14.01,14.08l-16.6,16.69l-1.4,1.41l1.4,1.41
				l16.97,17.06l1.42,1.43l1.42-1.43l36.02-36.2l1.4-1.41l-1.4-1.41l-50.82-51.08l-1.42-1.43l-1.42,1.43l-73.25,73.62l-1.4,1.41
				l1.4,1.41l51.45,51.71l-51.45,51.71l-1.4,1.41l1.4,1.41l73.25,73.62l1.42,1.43l1.42-1.43l50.82-51.08l1.4-1.41l-1.4-1.41
				L176,855.73l-1.42-1.43l-1.42,1.43l-16.97,17.06l-1.4,1.41l1.4,1.41l16.6,16.69l-14.01,14.08l-32.02-32.19l47.82-48.06
				l66.87,67.21l-66.25,66.59l-1.4,1.41l1.4,1.41l84.38,84.81l1.42,1.43l1.42-1.43l37.14-37.33l47.24-47.48l1.4-1.41l-1.4-1.41
				l-66.25-66.59l66.87-67.21l47.82,48.06l-32.02,32.19l-14.02-14.09l16.61-16.69l1.4-1.41l-1.4-1.41l-16.97-17.06l-1.42-1.43
				l-1.42,1.43l-36.02,36.2l-1.4,1.41l1.4,1.41l50.82,51.08l1.42,1.43l1.42-1.43l73.25-73.62l1.4-1.41l-1.4-1.41l-51.45-51.71
				l51.45-51.71l1.4-1.41l-1.4-1.41l-73.25-73.62l-1.42-1.43l-1.42,1.43l-50.82,51.08l-1.4,1.41l1.4,1.41l36.02,36.2l1.42,1.43
				l1.42-1.43l16.97-17.06l1.4-1.41l-1.4-1.41l-16.61-16.69l14.02-14.09l32.02,32.19l-47.82,48.07l-66.87-67.21l66.25-66.59
				l1.4-1.41l-1.4-1.41l-47.24-47.48L262.4,587.8l-1.42-1.43l-1.42,1.43l-37.14,37.33l-47.24,47.48l-1.4,1.41l1.4,1.41
				L241.44,742.02 M452.28,856.72l1.42-1.42l36.02-36.2l1.4-1.41l-1.4-1.41l-36.02-36.2l-1.42-1.42l-1.42,1.43l-36.02,36.2
				l-1.4,1.41l1.4,1.41l36.02,36.2L452.28,856.72 M69.69,856.72l1.42-1.43l36.02-36.2l1.4-1.41l-1.4-1.41l-36.02-36.2l-1.42-1.43
				l-1.42,1.43l-36.02,36.2l-1.4,1.41l1.4,1.41l36.02,36.2L69.69,856.72 M260.98,555.36L0,817.68L260.98,1080l53.97-54.25l0,0
				l207.01-208.07L314.96,609.61l0,0L260.98,555.36L260.98,555.36z M174.58,812.06l69.69-70.04l-67.66-68l47.24-47.48l0,0
				l37.14-37.33l37.14,37.33l0,0l47.24,47.48l-67.66,68l69.69,70.04l50.64-50.9l-34.84-35.02l-16.84,16.92l18.01,18.1l-16.97,17.06
				l-36.02-36.2l50.82-51.08l73.25,73.62l-52.85,53.12l52.85,53.12l-73.25,73.62l-50.82-51.08l36.02-36.2l16.97,17.06l-18.01,18.1
				l16.84,16.92l34.84-35.02l-50.64-50.9l-69.69,70.04l67.66,68l-47.24,47.48v0l-37.14,37.33l-84.38-84.81l67.66-68l-69.69-70.04
				l-50.64,50.9l34.84,35.02l16.83-16.92l-18.01-18.1l16.97-17.06l36.02,36.2l-50.82,51.08L86.52,870.8l52.85-53.12l-52.85-53.12
				l73.25-73.62l50.82,51.08l-36.02,36.2l-16.97-17.06l18.01-18.1l-16.83-16.92l-34.84,35.02L174.58,812.06L174.58,812.06z
				 M452.28,853.88l-36.02-36.2l36.02-36.2l36.02,36.2L452.28,853.88L452.28,853.88z M69.69,853.88l-36.02-36.2l36.02-36.2
				l36.02,36.2L69.69,853.88L69.69,853.88z"/>
		</g>
		<g>
			<path class="st51" d="M260.98,904.99l55.15,55.43l-55.15,55.43l-55.15-55.43L260.98,904.99 M260.98,902.15l-57.97,58.27
				l57.97,58.27l57.97-58.27L260.98,902.15L260.98,902.15z"/>
		</g>
		<g>
			<path class="st51" d="M260.98,617.78l55.15,55.43l-55.15,55.43l-55.15-55.43L260.98,617.78 M260.98,614.95l-57.97,58.27
				l57.97,58.27l57.97-58.27L260.98,614.95L260.98,614.95z"/>
		</g>
	</g>
</g>
</svg>
